<svg id="Lager_1" xmlns="http://www.w3.org/2000/svg" width="83" height="62" viewBox="0 0 83 62"><style>.st0{fill:#41cd8c}.st1{fill:#fff}.st2{fill:#ffde00}</style><path class="st0" d="M16.5.7h50.3c5 0 9 4 9 9V44c0 5-4 9-9 9H50.6l-8.9 9-9.1-9H16.5c-5 0-9-4-9-9V9.7c0-5 4-9 9-9z"/><path class="st1" d="M41.7 20.9c-4.2-10.3-16.8-8.1-17.2 3.8-.2 6.6 5.8 9.1 9.7 11.8 3.8 2.6 6.5 6.1 6.9 7.6.4-1.4 3.6-5 7.2-7.5 4-2.7 10.2-4.9 10.3-11.5.3-11.9-12.4-14-16.9-4.2z"/><path class="st2" d="M83 5.2l-4.8-.9L75.8 0l-2.4 4.3-4.8.9L72 8.7l-.6 4.8 4.4-2.1 4.4 2.1-.6-4.8L83 5.2zm-76.3 39L5 41l-1.6 3.2-3.4.6 2.3 2.6-.4 3.6L5 49.5 8.1 51l-.4-3.6 2.3-2.6-3.3-.6zm59.9-20.8c-.7 0-1.3.6-1.3 1.4s.6 1.4 1.3 1.4c.7 0 1.3-.6 1.3-1.4s-.6-1.4-1.3-1.4zM28.7 44.2L27.5 42l-1.2 2.2-2.3.5 1.6 1.8-.3 2.5 2.2-1.1 2.2 1.1-.3-2.5 1.6-1.8-2.3-.5zM19.3 7.6L18.5 6l-.8 1.6-1.7.3 1.2 1.3L17 11l1.5-.8 1.5.8-.2-1.8L21 7.9l-1.7-.3zm41 3L59.5 9l-.8 1.6-1.7.3 1.2 1.3L58 14l1.5-.8 1.5.8-.2-1.8 1.2-1.3-1.7-.3z"/></svg>