<svg id="Lager_1" xmlns="http://www.w3.org/2000/svg" width="40" height="40" viewBox="0 0 40 40"><style>.st0,.st1{fill:#fff}.st1{display:none}</style><path class="st0" d="M34.5 13c-1.4 0-2.5 1.1-2.5 2.5v10.3c0 1.4 1.1 2.5 2.5 2.5s2.5-1.1 2.5-2.5V15.5c0-1.4-1.1-2.5-2.5-2.5zM5.7 13c-1.4 0-2.5 1.1-2.5 2.5v10.3c0 1.4 1.1 2.5 2.5 2.5s2.5-1.1 2.5-2.5V15.5C8.1 14.1 7 13 5.7 13zm25.4.4v16c0 1.5-1.2 2.7-2.7 2.7h-1.8v5.5c0 1.4-1.1 2.5-2.5 2.5s-2.5-1.1-2.5-2.5v-5.5h-3.3v5.5c0 1.4-1.1 2.5-2.5 2.5s-2.5-1.1-2.5-2.5v-5.5h-1.8c-1.5 0-2.7-1.2-2.7-2.7v-16h22.3zm-5.6-9.7L27.2.5c.1-.2 0-.4-.1-.5h-.2c-.1 0-.2.1-.3.2l-1.8 3.2c-1.4-.6-3.1-1-4.8-1-1.7 0-3.3.4-4.8 1L13.4.2c.1-.2-.1-.3-.3-.2s-.2.3-.1.5l1.7 3.2c-3.4 1.7-5.6 5.1-5.6 8.9h22.1c-.1-3.9-2.3-7.2-5.7-8.9zM15 8.5c-.5 0-.9-.4-.9-.9s.4-.9.9-.9.9.4.9.9-.4.9-.9.9zm10.2 0c-.5 0-.9-.4-.9-.9s.4-.9.9-.9.9.4.9.9-.4.9-.9.9z"/><path class="st1" d="M36.1 31.2c-.6 1.4-1.3 2.7-2.2 3.9-1.1 1.6-2.1 2.7-2.8 3.3-1.1 1-2.3 1.5-3.6 1.6-.9 0-2-.3-3.3-.8-1.3-.5-2.5-.8-3.5-.8-1.1 0-2.3.3-3.6.8-1.2.5-2.3.8-3.1.8-1.2.1-2.4-.5-3.6-1.6-.8-.7-1.7-1.8-2.9-3.5s-2.3-3.8-3.1-6.1c-.9-2.5-1.3-4.9-1.3-7.3 0-2.7.6-5 1.7-6.9 1-1.5 2.2-2.7 3.7-3.6s3.2-1.4 4.9-1.4c1 0 2.2.3 3.8.9 1.6.6 2.6.9 3 .9.3 0 1.5-.3 3.4-1 1.8-.6 3.3-.9 4.6-.8 3.4.3 5.9 1.6 7.6 4-3 1.8-4.5 4.4-4.5 7.7 0 2.6 1 4.7 2.8 6.4.8.8 1.7 1.4 2.8 1.8-.3.5-.5 1.1-.8 1.7zM28.4.8c0 2-.7 3.9-2.2 5.6-1.8 2.1-3.9 3.2-6.2 3.1v-.8c0-1.9.8-4 2.3-5.7.7-.9 1.7-1.6 2.8-2.1 1.1-.6 2.2-.9 3.2-.9.1.3.1.5.1.8z"/></svg>