<?xml version="1.0" encoding="UTF-8"?>
<svg width="230px" height="150px" viewBox="0 0 230 150" version="1.1" xmlns="http://www.w3.org/2000/svg" xmlns:xlink="http://www.w3.org/1999/xlink">
    <!-- Generator: Sketch 60.1 (88133) - https://sketch.com -->
    <title>usp-mealplans</title>
    <desc>Created with Sketch.</desc>
    <defs>
        <rect id="path-1" x="0" y="0" width="100" height="106" rx="6"></rect>
        <polygon id="path-3" points="0.239699653 0.588371198 97.2323835 0.588371198 97.2323835 50.6738544 0.239699653 50.6738544"></polygon>
        <polygon id="path-5" points="0.758567578 0.264343473 41.3771757 0.264343473 41.3771757 40.0269542 0.758567578 40.0269542"></polygon>
    </defs>
    <g id="usp-mealplans" stroke="none" stroke-width="1" fill="none" fill-rule="evenodd">
        <g transform="translate(6.000000, 15.000000)">
            <g id="calendar" transform="translate(79.522087, 0.000000)">
                <g id="Group-13">
                    <mask id="mask-2" fill="white">
                        <use xlink:href="#path-1"></use>
                    </mask>
                    <use id="Rectangle" fill="#F5F5F2" xlink:href="#path-1"></use>
                    <path d="M65.2678372,45.6076375 L46.8697445,64.679936 C46.5139814,65.0578129 45.9213476,65.0817996 45.5362094,64.7339106 L35.3256636,55.150462 C35.0666249,54.9237934 34.9498417,54.5751189 35.020101,54.2381569 C35.0903603,53.9011949 35.3367568,53.6282464 35.6647965,53.5239883 C35.9928361,53.4197302 36.3516027,53.5003448 36.6035076,53.734916 L46.1205846,62.6927932 L63.8788017,44.3002314 C64.1123473,44.052036 64.4605631,43.947289 64.7922794,44.0254477 C65.1239958,44.1036064 65.3888172,44.3527966 65.4869879,44.6791508 C65.5851587,45.0055049 65.5017643,45.359442 65.2682187,45.6076375 L65.2678372,45.6076375 Z" id="Shape" stroke="#96BF53" stroke-width="6.07929515" fill="#96BF53" fill-rule="nonzero" mask="url(#mask-2)"></path>
                    <rect id="Rectangle" fill="#219651" mask="url(#mask-2)" x="0" y="0" width="100" height="20"></rect>
                    <circle id="Oval" fill="#FFFFFF" mask="url(#mask-2)" cx="85" cy="10" r="3"></circle>
                    <circle id="Oval-Copy" fill="#FFFFFF" mask="url(#mask-2)" cx="15" cy="10" r="3"></circle>
                </g>
            </g>
            <g id="leaf" transform="translate(0.000000, 21.409692)" fill-rule="nonzero">
                <g id="Group" transform="translate(40.000000, 71.590308) rotate(-11.000000) translate(-40.000000, -71.590308) translate(8.000000, 27.590308)">
                    <path d="M11.8653343,1.97470005 C4.86178862,5.27300598 1.42212671,12.7563053 4.20212743,18.6632714 C4.5533756,19.4128864 5.02456216,20.1368003 5.59855306,20.826446 C6.32675047,21.7002829 6.22394613,23.0024713 5.36295978,23.7478027 C0.706779843,27.7828731 -0.912388525,33.6984062 1.3278894,38.4659575 C2.54869095,41.0617671 4.74185022,43.0064826 7.67605745,44.0902117 C8.32715161,44.3300885 8.81547223,44.8783783 8.98252928,45.5551735 C9.14958633,46.2319688 8.96539522,46.9430321 8.49849217,47.4570538 C4.57050965,51.7791197 3.46536299,57.2962859 5.6114036,61.8582286 C7.89023316,66.6943161 13.3517138,69.4014971 19.5328248,68.7461194 C20.1539343,68.6775832 20.7750439,68.8960424 21.2205294,69.3372444 C21.6660148,69.7741628 21.8930411,70.3952724 21.8330719,71.0206654 C21.6702983,72.7726228 21.9444433,74.4174922 22.6512231,75.9167222 C25.18278,81.3010995 32.4476201,83.2243974 38.8471903,80.2130869 C39.1341857,80.0760145 39.3997636,79.9132409 39.6653415,79.7547509 L39.9352029,79.5919774 C40.4363741,79.2792808 41.0703342,79.2064611 41.635758,79.3820852 C42.1968984,79.5534257 42.6809355,79.947509 42.9336628,80.4786648 L46.2319688,87.486494 L46.1934171,87.5036281 L51.4621396,85.0234734 L12.2851187,1.79479245 C12.1480463,1.85904516 12.0066903,1.90616382 11.8653343,1.97470005 Z" id="Path" fill="#20A357"></path>
                    <path d="M58.4357007,50.4340962 C62.877705,46.0863293 64.2741306,40.1536621 61.9995845,35.3175746 C59.8492604,30.7513484 54.8932345,28.0912861 49.0633717,28.365431 C48.3694424,28.3996992 47.7054977,28.0827191 47.2899968,27.5258623 C46.8744959,26.9690054 46.7631245,26.240808 46.9944343,25.5854303 C48.0096272,22.6812077 47.9068228,19.6698972 46.7031553,17.1083557 C44.4585939,12.3408044 38.8686079,9.81781455 32.7903012,10.8372909 C31.663737,11.0257656 30.5928584,10.2761506 30.3872497,9.15386985 C30.2244762,8.28003295 29.9631818,7.45331471 29.6119337,6.70369972 C28.2926113,3.89799792 25.7567709,1.84619462 22.475599,0.929522582 C19.2201282,0.021417571 15.6219763,0.338397622 12.2936858,1.79907596 L51.4707066,85.0277569 L55.6557,83.0573404 L52.3573941,76.0495111 C52.1089503,75.5183554 52.2203216,74.8415601 52.4473479,74.3018373 C52.6700906,73.757831 53.1755453,73.299495 53.7324021,73.1024534 L54.0622327,72.982515 C54.3535117,72.8797106 54.6662082,72.7726228 54.9489202,72.6355503 C61.3484904,69.6242398 64.5011568,62.7920347 61.9695999,57.4119408 C61.2671036,55.9169944 60.1748075,54.6533577 58.7184127,53.6595824 C58.2001074,53.3040507 57.8702769,52.7386268 57.8188747,52.1132338 C57.7589055,51.4878407 57.9859317,50.8710146 58.4357007,50.4340962 Z" id="Path" fill="#219651"></path>
                </g>
                <g id="Group" transform="translate(40.000000, 0.590308)">
                    <path d="M25.0671251,0.445485477 C17.3782171,1.37072454 11.76253,7.39762902 12.5421296,13.8743025 C12.6406504,14.6967372 12.8591096,15.5320225 13.1846567,16.3673078 C13.6044411,17.4253358 13.0947029,18.6290033 12.0409584,19.0659217 C6.35245156,21.4304215 2.95134128,26.5363705 3.58101787,31.7665413 C3.92369901,34.6150783 5.39294438,37.1509187 7.83883099,39.1042011 C8.38283729,39.5368361 8.67411626,40.2136313 8.61843057,40.9075606 C8.56274489,41.6014899 8.16437807,42.218316 7.56040256,42.5609971 C2.47158769,45.4266681 -0.312696537,50.3184413 0.291278966,55.3258694 C0.929522582,60.6331435 5.26872247,64.9209412 11.3384621,66.2402636 C11.9510046,66.3730525 12.4693098,66.7714194 12.7563053,67.3325597 C13.0433007,67.8894166 13.0604348,68.5447942 12.811991,69.1230687 C12.1052111,70.73367 11.8524838,72.382823 12.0495254,74.0276924 C12.7605888,79.9346585 19.0487877,84.0468321 26.0694674,83.2029798 C26.3864475,83.1644282 26.6862935,83.0916085 26.990423,83.0273558 L27.2945525,82.9588195 C27.8685434,82.8217471 28.4939365,82.9502525 28.9736901,83.2972171 C29.4534436,83.6356148 29.7918413,84.162487 29.8603775,84.7450449 L30.7856166,92.4339529 L30.7427814,92.4382365 L36.5255256,91.7400236 L25.5168941,0.411217363 C25.3712546,0.424067906 25.2213316,0.424067906 25.0671251,0.445485477 Z" id="Path" fill="#20A357"></path>
                    <path d="M54.0279646,61.0914795 C59.6093836,58.362881 62.8048852,53.1712618 62.1666416,47.8639877 C61.5626661,42.8565596 57.6946528,38.7658035 52.0746821,37.1937538 C51.4064539,37.0052792 50.8710146,36.4998245 50.6525554,35.8358798 C50.4340962,35.1762186 50.5540346,34.4523047 50.982386,33.8997314 C52.8585652,31.4624118 53.7109846,28.5710397 53.3725869,25.7610544 C52.7429104,20.5266001 48.2280864,16.3758748 42.1369292,15.4335017 C41.010365,15.2578776 40.2307654,14.2084166 40.3892554,13.0775689 C40.5091938,12.1951649 40.5220443,11.3341786 40.4235235,10.5074603 C40.0508578,7.42761362 38.2903334,4.68188102 35.4674976,2.78000072 C32.6617958,0.890970954 29.1493141,0.064252713 25.5297446,0.402650335 L36.5383761,91.7314566 L41.1303034,91.1788833 L40.2050643,83.4899753 C40.1365281,82.9074174 40.4535081,82.3034419 40.8390244,81.8579564 C41.2245407,81.4124709 41.8456502,81.1340425 42.4367752,81.1254754 L42.7880234,81.1169084 C43.0964364,81.1126249 43.426267,81.1040579 43.7389635,81.0655062 C50.7596433,80.2173704 55.9041438,74.7301887 55.1930805,68.8232227 C54.9960388,67.1826367 54.3577952,65.6405716 53.2869167,64.2398625 C52.9099674,63.7386913 52.772895,63.1004477 52.9185344,62.4921887 C53.0556069,61.8796461 53.4625407,61.3656244 54.0279646,61.0914795 Z" id="Path" fill="#219651"></path>
                </g>
            </g>
            <g id="chicken" transform="translate(54.000000, 73.000000)">
                <g id="Group-3" transform="translate(1.925298, 9.156142)">
                    <mask id="mask-4" fill="white">
                        <use xlink:href="#path-3"></use>
                    </mask>
                    <g id="Clip-2"></g>
                    <path d="M37.6829034,0.588371198 C56.654794,0.588371198 62.0976126,10.9811321 76.6124374,16.8186369 C91.1291875,22.6522911 97.2323835,28.7689642 97.2323835,37.1555641 C97.2323835,45.5440893 91.4584136,54.5756642 81.2312283,54.5756642 L16.7337312,54.5756642 C5.84809395,54.5756642 0.239699653,43.9942241 0.239699653,32.142087 C0.239699653,20.2860993 15.7441278,0.588371198 37.6829034,0.588371198" id="Fill-1" fill="#D9A262" mask="url(#mask-4)"></path>
                </g>
                <path d="M7.10935695,8.22160185 C7.1748171,8.23507894 7.22872545,8.26395841 7.2941856,8.2774355 C7.09587986,7.44185599 7.04197151,6.55236812 7.18636889,5.64362726 C7.72545245,2.27242973 10.6345784,0.0217558722 13.6861764,0.618598383 C16.7358491,1.21351559 18.7728148,4.43068926 18.2337312,7.80188679 C18.0084713,9.20735464 17.3577204,10.3952638 16.4720832,11.2866769 C18.6977281,13.745283 21.6800154,17.0471698 24.3946862,20.0544859 L17.0689257,27.2724297 C14.7527917,24.1688487 12.3134386,21.0267616 10.3169041,18.4969195 C9.06738544,20.0641124 7.14978822,20.8669619 5.14940316,20.4761263 C2.09973046,19.8812091 0.0685406238,16.6409318 0.607624182,13.2697343 C1.14670774,9.89853677 4.05968425,7.62475934 7.10935695,8.22160185" id="Fill-4" fill="#FFFFFF"></path>
                <g id="Group-8" transform="translate(16.307278, 19.803042)">
                    <mask id="mask-6" fill="white">
                        <use xlink:href="#path-5"></use>
                    </mask>
                    <g id="Clip-7"></g>
                    <path d="M14.9172122,7.85194455 C16.4747786,9.63669619 22.5028879,9.3806315 28.3885252,12.3821717 C34.2741625,15.3817867 42.8763958,26.409896 41.1532538,37.1819407 C40.0327301,44.1861764 29.7169811,50.9632268 29.7169811,50.9632268 L11.8482865,47.4707355 C11.8482865,47.4707355 -0.394686176,39.1804005 1.29957643,28.5874085 C1.81940701,25.3240277 3.49249134,21.9297266 6.97535618,20.3702349 C7.51829034,20.1295726 8.27108202,18.5412014 7.76280323,17.6574894 C6.3438583,15.1834809 3.64651521,11.357913 0.758567578,7.48806315 L8.08625337,0.264343473 C11.3977667,3.93396226 14.3068926,7.15306122 14.9172122,7.85194455" id="Fill-6" fill="#BE8038" mask="url(#mask-6)"></path>
                </g>
            </g>
            <g id="leaf-green" transform="translate(142.000000, 38.000000)" fill-rule="nonzero">
                <path d="M43.135,3.694 C41.002,2.844 39.055,0.711 36.863,0.506 C34.671,0.301 32.883,2.05 30.773,2.523 C28.811,2.963 26.07,2.173 24.211,3.247 C22.557,4.202 22.127,6.764 20.599,8.256 C19.259,9.565 16.582,9.953 15.376,11.702 C13.715,14.104 14.048,17.968 13.069,21.399 C12.219,24.383 9.883,27.109 9.36,30.518 C8.822,33.707 10.124,37.481 9.753,40.793 C9.383,44.105 7.265,47.066 6.827,50.263 C6.348,53.731 7.498,57.528 6.771,60.493 C5.888,64.084 1.675,73.633 0.095,75.93 L0.837,76.448 L49.811,5.548 C47.864,4.198 45.168,4.508 43.135,3.694 Z" id="Path" fill="#96BF53"></path>
                <path d="M57.47,34.016 C58.327,32.058 60.56,30.768 60.872,28.876 C61.224,26.751 59.537,24.442 59.262,22.443 C58.965,20.283 59.959,17.968 59.017,15.998 C58.075,14.029 55.375,12.91 53.854,11.195 C52.371,9.546 51.725,6.898 49.793,5.548 L0.81,76.46 L1.552,76.979 C3.302,74.442 10.561,67.065 13.283,65.003 C15.787,63.108 19.7,62.765 22.678,61.131 C25.531,59.558 27.552,56.589 30.542,55.108 C33.532,53.628 37.526,53.642 40.386,52.124 C43.434,50.514 45.252,47.425 47.781,45.631 C50.645,43.602 54.372,42.614 56.082,40.137 C57.292,38.396 56.717,35.737 57.47,34.017 L57.47,34.016 Z" id="Path" fill="#85B53C"></path>
                <polygon id="Path" fill="#85B53C" points="24.553 42.087 18.039 13.932 21.989 45.802 53.064 38.398"></polygon>
                <polygon id="Path" fill="#85B53C" points="31.804 31.588 26.04 6.674 29.534 34.878 57.037 28.325"></polygon>
                <polygon id="Path" fill="#85B53C" points="39.396 20.597 34.66 3.963 37.13 23.883 56.554 19.254"></polygon>
            </g>
            <g id="aubergine" transform="translate(126.000000, 70.000000)" fill-rule="nonzero">
                <path d="M87.624,13.117 C90.9,11.055 93.63,5.464 92.686,0.921 C92.466,-0.11 88.478,-0.569 88.529,1.414 C88.59,3.799 90.178,8.334 86.264,10.785 C82.351,13.235 87.624,13.117 87.624,13.117 L87.624,13.117 Z" id="Path" fill="#58A550"></path>
                <path d="M89.141,12.12 C86.286,8.3 78.095,6.534 74.208,9.021 C73.922,9.203 73.568,9.431 73.163,9.679 C84.308,11.39 88.346,17.835 90.119,24.005 C91.733,18.462 90.797,14.334 89.141,12.121 L89.141,12.12 Z" id="Path" fill="#58A550"></path>
                <path d="M0.807,41.883 C0.404,30.005 13.564,20.223 31.918,20.862 C46.4781739,21.3865113 60.8560614,17.491004 73.16,9.688 C79.3,10.631 83.276,13.014 85.91,15.992 C88.059,18.42 89.32,21.243 90.116,24.025 C88.092,30.923 82.109,40.024 68.546,50.346 C44.102,68.947 13.442,66.516 3.799,51.075 C1.935,48.092 0.989,45.111 0.824,42.244 L0.807,41.883 Z" id="Path" fill="#8278C8"></path>
            </g>
        </g>
    </g>
</svg>