<?xml version="1.0" encoding="UTF-8"?>
<svg width="250px" height="150px" viewBox="0 0 250 126" version="1.1" xmlns="http://www.w3.org/2000/svg" xmlns:xlink="http://www.w3.org/1999/xlink">
    <!-- Generator: Sketch 62 (91390) - https://sketch.com -->
    <title>usp-trackers</title>
    <desc>Created with Sketch.</desc>
    <g id="Page-1" stroke="none" stroke-width="1" fill="none" fill-rule="evenodd">
        <g id="Homepage-Q4-2019" transform="translate(-595.000000, -1461.000000)" fill-rule="nonzero">
            <g id="usp-3" transform="translate(534.000000, 1461.000000)">
                <g id="usp-trackers" transform="translate(84.000000, 0.000000)">
                    <rect id="Rectangle" stroke="#FFFFFF" stroke-width="4" fill="#E0EEF5" x="0" y="0" width="204" height="126" rx="8"></rect>
                    <g id="Group" transform="translate(22.000000, 34.000000)">
                        <polygon id="Path" fill="#76C3ED" points="37.755 11.649 30.872 54.36 11.12 54.36 4.237 11.649"></polygon>
                        <path d="M0.217,1.35 C0.163165651,1.01313006 0.25956003,0.669581143 0.480780725,0.409887284 C0.702001419,0.150193425 1.02585585,0 1.367,0 L40.625,0 C40.9663768,0 41.2905647,0.149796835 41.512159,0.409477676 C41.7337533,0.669158516 41.8305321,1.01284649 41.777,1.35 L33.016,55.701 C32.9247927,56.2654416 32.4377629,56.681 31.866,56.681 L10.128,56.681 C9.55623713,56.681 9.06920725,56.2654416 8.978,55.701 L0.217,1.351 L0.217,1.35 Z M30.872,54.36 L37.755,11.649 L4.237,11.649 L11.12,54.36 L30.872,54.36 Z" id="Shape" fill="#FFFFFF"></path>
                        <ellipse id="Oval" fill="#E8F0F8" cx="27.206" cy="30.221" rx="1.712" ry="1.724"></ellipse>
                        <circle id="Oval" fill="#E8F0F8" cx="23.652" cy="35.105" r="1"></circle>
                        <ellipse id="Oval" fill="#E8F0F8" cx="23.235" cy="19.286" rx="1.205" ry="1.213"></ellipse>
                        <circle id="Oval" fill="#E8F0F8" cx="13.729" cy="28.498" r="1"></circle>
                    </g>
                    <g id="Group" transform="translate(80.766000, 34.000000)">
                        <polygon id="Path" fill="#76C3ED" points="37.755 11.649 30.872 54.36 11.12 54.36 4.237 11.649"></polygon>
                        <path d="M0.217,1.35 C0.163165651,1.01313006 0.25956003,0.669581143 0.480780725,0.409887284 C0.702001419,0.150193425 1.02585585,0 1.367,0 L40.625,0 C40.9663768,0 41.2905647,0.149796835 41.512159,0.409477676 C41.7337533,0.669158516 41.8305321,1.01284649 41.777,1.35 L33.016,55.701 C32.9247927,56.2654416 32.4377629,56.681 31.866,56.681 L10.128,56.681 C9.55623713,56.681 9.06920725,56.2654416 8.978,55.701 L0.217,1.351 L0.217,1.35 Z M30.872,54.36 L37.755,11.649 L4.237,11.649 L11.12,54.36 L30.872,54.36 Z" id="Shape" fill="#FFFFFF"></path>
                        <ellipse id="Oval" fill="#E8F0F8" cx="27.206" cy="30.221" rx="1.712" ry="1.724"></ellipse>
                        <circle id="Oval" fill="#E8F0F8" cx="25.652" cy="34.105" r="1"></circle>
                        <ellipse id="Oval" fill="#E8F0F8" cx="12.235" cy="22.286" rx="1.205" ry="1.213"></ellipse>
                        <circle id="Oval" fill="#E8F0F8" cx="15.729" cy="28.498" r="1"></circle>
                    </g>
                    <path d="M139.749,35.35 C139.695166,35.0131301 139.79156,34.6695811 140.012781,34.4098873 C140.234001,34.1501934 140.557856,34 140.899,34 L180.157,34 C180.498377,34 180.822565,34.1497968 181.044159,34.4094777 C181.265753,34.6691585 181.362532,35.0128465 181.309,35.35 L172.548,89.701 C172.456793,90.2654416 171.969763,90.681 171.398,90.681 L149.66,90.681 C149.088237,90.681 148.601207,90.2654416 148.51,89.701 L139.749,35.351 L139.749,35.35 Z" id="Path" fill="#FFFFFF"></path>
                    <circle id="b" fill="#3CAAE6" cx="160.422" cy="59.279" r="8.296"></circle>
                    <path d="M163.879,59.28 C163.87845,59.3917231 163.787724,59.4820014 163.676,59.482 L160.626,59.482 L160.626,62.532 C160.626,62.6443899 160.53489,62.7355 160.4225,62.7355 C160.31011,62.7355 160.219,62.6443899 160.219,62.532 L160.219,59.482 L157.169,59.482 C157.056886,59.482 156.966,59.3911138 156.966,59.279 C156.966,59.1668862 157.056886,59.076 157.169,59.076 L160.219,59.076 L160.219,56.026 C160.219,55.9138862 160.309886,55.823 160.422,55.823 C160.534114,55.823 160.625,55.9138862 160.625,56.026 L160.625,59.076 L163.675,59.076 C163.788,59.076 163.879,59.166 163.879,59.279 L163.879,59.28 Z" id="Path" stroke="#FFFFFF" stroke-width="0.62" fill="#FFFFFF"></path>
                </g>
            </g>
        </g>
    </g>
</svg>
